<svg width="403" height="174" viewBox="0 0 403 174" fill="none" xmlns="http://www.w3.org/2000/svg">
<g clip-path="url(#clip0_386_833)">
<path d="M65.9137 60.974C63.5148 61.0657 53.2565 61.0657 41.536 61.0657V64.1385C58.5342 65.3997 65.2512 70.6967 65.2512 79.1581C65.2512 88.7891 56.318 94.3842 33.1055 94.3842C9.8929 94.3842 0.936875 88.812 0.936875 79.1811C0.936875 70.6967 7.65389 65.3997 24.7435 64.1614V61.0887C12.7488 61.0887 2.37624 61.0887 0.3657 60.9969C-0.114087 56.3649 -0.114087 51.5494 0.3657 47.1238C5.25496 46.8257 59.9735 46.8257 65.9137 47.1238C66.3021 51.6412 66.3935 56.5713 65.9137 60.9969V60.974ZM1.41666 32.2646C5.16357 30.9117 14.1881 28.3205 22.0475 26.188C12.9316 26.188 5.34635 26.188 2.94741 26.0963C2.46762 22.2439 2.46762 15.5022 2.94741 12.4066C5.52912 12.2231 14.5537 12.1085 24.8348 12.1085C24.8348 10.0906 24.9262 8.16437 25.1319 6.32991C28.399 5.84836 37.7891 5.84836 41.1704 6.32991C41.3532 8.16437 41.4675 10.0906 41.4675 12.1085C51.9314 12.1085 60.9559 12.2002 63.3549 12.4066C63.8347 15.7774 63.8347 22.5191 63.3549 26.0963C61.1387 26.188 53.4621 26.188 44.2548 26.188C52.137 28.2976 61.1387 30.9117 64.8856 32.2646C64.1088 36.4151 61.7099 42.2854 59.5166 45.2664C52.7996 43.5237 41.9472 40.0611 33.2197 37.1718C24.4007 40.0611 13.5484 43.5237 6.8314 45.2664C4.61524 42.2854 2.21631 36.4151 1.46236 32.2646H1.41666ZM33.0826 76.2001C20.1284 76.2001 17.4324 77.2549 17.4324 79.1811C17.4324 81.1072 20.1284 82.0703 33.0826 82.0703C46.0369 82.0703 48.7328 81.0155 48.7328 79.1811C48.7328 77.2549 46.0369 76.2001 33.0826 76.2001Z" fill="white"/>
<path d="M71.5568 50.0822C70.9856 44.2119 70.9856 15.9841 71.5568 11.0769C75.6921 10.5954 83.9399 10.5954 87.8696 11.0769C88.1666 15.5943 88.1666 30.3388 87.8696 35.8422C91.3195 35.6587 113.984 35.5441 118.393 35.8422C118.873 38.6397 118.873 47.3076 118.393 50.1051C113.595 50.6784 76.3547 50.6784 71.5568 50.1051V50.0822ZM140.372 56.434C141.035 61.1578 141.035 87.1613 140.372 91.7933C135.757 92.2749 78.1824 92.2749 73.5673 91.7933C72.9048 87.1613 72.9048 61.1578 73.5673 56.434C78.6622 55.8608 135.277 55.8608 140.372 56.434ZM124.356 70.1008C120.701 69.9173 93.1701 69.8027 89.6973 70.1008C89.5145 73.0818 89.5145 75.0997 89.6973 78.1954C93.2386 78.4935 120.792 78.4935 124.356 78.1954C124.539 75.1226 124.539 73.0818 124.356 70.1008ZM149.122 37.6308C147.5 37.8142 144.233 38.0206 140.875 38.0206C140.783 45.1521 140.692 51.2058 140.395 53.0403C137.607 53.4301 128.309 53.4301 124.562 53.0403C124.082 48.3165 124.082 14.035 124.562 9.2195C127.829 8.64623 137.128 8.64623 140.395 9.2195C140.578 10.9622 140.783 16.351 140.875 22.9092C144.233 22.9092 147.5 23.0926 149.122 23.299C149.602 25.4086 149.602 35.6358 149.122 37.6537V37.6308Z" fill="white"/>
<path d="M195.548 72.531C195.936 75.1222 196.027 84.2716 195.548 87.757C189.973 88.1469 159.084 88.1469 152.732 87.757C152.07 78.6994 152.07 20.3176 152.732 11.2828C157.347 10.893 187.871 10.893 194.382 11.2828C194.771 13.9887 194.771 22.7482 194.382 26.3025C189.973 26.3942 172.312 26.3942 169.136 26.3025C168.839 28.8937 168.839 69.0684 169.136 72.531C173.843 72.3475 191.412 72.3475 195.525 72.531H195.548ZM240.076 90.8298C237.198 91.4948 228.082 91.4948 224.335 90.8298C224.243 88.6055 224.152 71.5679 224.152 53.6589H216.658C216.658 70.9946 216.567 87.3672 216.361 89.5915C213.482 90.1648 204.549 90.1648 200.917 89.5915C200.528 84.776 200.528 14.4473 200.917 9.63181C204.184 9.05854 213.094 9.05854 216.361 9.63181C216.544 11.558 216.658 24.0782 216.658 38.731C219.057 38.6393 221.639 38.6393 224.152 38.731C224.152 23.8948 224.243 11.1911 224.335 9.26491C227.602 8.69164 236.809 8.69164 240.076 9.26491C240.648 14.0804 240.648 86.129 240.076 90.8527V90.8298Z" fill="white"/>
<path d="M0.0683594 124.263C0.0683594 112.408 8.5446 105.391 22.2071 105.391C35.8696 105.391 44.3458 112.408 44.3458 124.263C44.3458 136.118 35.8696 143.135 22.2071 143.135C8.5446 143.135 0.0683594 136.095 0.0683594 124.263ZM66.0048 147.033C66.3932 150.313 66.3932 169.414 66.0048 172.601C62.8976 172.831 55.9064 172.831 52.6393 172.601C52.5708 170.262 52.6393 161.755 52.6393 158.797C49.0752 158.866 6.12281 158.866 2.62722 158.797C2.39875 156.917 2.39875 149.281 2.62722 147.033C6.57975 146.644 62.1208 146.644 66.0048 147.033ZM12.7256 124.263C12.7256 129.17 16.4497 131.991 22.2071 131.991C27.9646 131.991 31.6886 129.193 31.6886 124.263C31.6886 119.333 27.9646 116.535 22.2071 116.535C16.4497 116.535 12.7256 119.333 12.7256 124.263ZM46.2878 127.382C47.613 127.313 50.2404 127.221 52.9592 127.221V120.755C50.2404 120.755 47.5901 120.686 46.2878 120.594C45.8994 118.255 45.8994 111.697 46.2878 109.289C47.6815 109.221 50.3318 109.129 53.0506 109.129C53.1191 107.501 53.1191 106.331 53.2105 105.689C55.8607 105.231 63.3774 105.231 66.0276 105.689C66.576 109.587 66.576 140.383 66.0276 144.282C63.7658 144.603 56.2491 144.603 53.2105 144.282C53.1419 143.502 53.1419 141.553 53.0506 138.985C50.3318 138.985 47.6815 138.916 46.2878 138.755C45.8994 136.416 45.8994 129.858 46.2878 127.382Z" fill="white"/>
<path d="M72.5394 143.112C71.9911 139.053 71.9911 124.951 72.5394 119.723C76.1035 119.562 89.0806 119.562 93.5815 119.723V116.765C89.1491 116.834 75.875 116.834 72.2195 116.765C71.8311 113.967 71.8311 109.358 72.2195 106.24C75.6466 105.918 102.972 105.918 106.307 106.24C106.696 110.138 106.696 124.561 106.307 129.239C102.972 129.4 88.4409 129.4 85.8135 129.239V132.358C88.5323 132.289 107.175 132.358 110.58 132.358C110.968 134.628 110.968 140.705 110.58 143.112C105.302 143.571 77.8856 143.571 72.5165 143.112H72.5394ZM129.154 159.714C129.154 168.841 121.455 173.817 100.893 173.817C80.3302 173.817 72.6079 168.818 72.6079 159.714C72.6079 150.611 80.3074 145.612 100.893 145.612C121.478 145.612 129.154 150.611 129.154 159.714ZM115.629 159.714C115.629 157.696 113.298 156.527 100.87 156.527C88.4409 156.527 86.1105 157.696 86.1105 159.714C86.1105 161.732 88.4409 162.902 100.87 162.902C113.298 162.902 115.629 161.732 115.629 159.714ZM134.112 127.68C134.5 129.308 134.5 137.104 134.112 138.664C132.787 138.824 130.16 138.893 127.349 138.985C127.349 141.645 127.281 143.594 127.189 144.442C124.928 144.763 117.411 144.763 114.372 144.442C113.984 140.315 113.984 109.587 114.372 105.689C117.022 105.231 124.539 105.231 127.189 105.689C127.258 106.538 127.349 108.578 127.418 111.376C130.137 111.445 132.787 111.537 134.089 111.697C134.478 113.325 134.478 121.122 134.089 122.681C132.764 122.841 130.205 122.91 127.486 123.002V127.359C130.205 127.428 132.764 127.519 134.089 127.68H134.112Z" fill="white"/>
<path d="M203.019 147.79C198.198 147.951 151.59 147.951 147.637 147.79C147.249 144.282 147.249 140.613 147.637 136.944C149.26 136.875 158.193 136.783 168.52 136.783V133.894C159.427 133.894 151.59 133.825 149.968 133.665C149.579 130.225 149.579 126.648 149.968 123.3C150.813 123.3 153.532 123.3 157.279 123.231L156.822 117.453C153.326 117.384 150.836 117.384 149.991 117.384C149.602 113.875 149.602 110.046 149.991 106.629C153.943 106.239 194.337 106.239 200.711 106.629C201.031 110.206 201.099 114.105 200.711 117.384H193.88C193.72 119.402 193.56 121.443 193.423 123.3H200.734C201.054 126.74 201.122 130.386 200.734 133.665C198.244 133.825 190.704 133.825 182.159 133.894V136.783C192.258 136.783 201.122 136.852 203.064 136.944C203.384 140.682 203.453 144.419 203.064 147.79H203.019ZM201.305 150.45C201.853 154.348 201.853 169.62 201.305 173.289C197.353 173.748 153.304 173.748 149.351 173.289C148.803 169.62 148.803 154.348 149.351 150.45C153.007 150.06 197.672 150.06 201.305 150.45ZM187.94 160.425C185.221 160.196 165.481 160.196 162.694 160.425V163.314C165.412 163.544 185.152 163.544 187.94 163.314V160.425ZM170.073 123.231H180.56L181.017 117.453H169.593L170.05 123.231H170.073Z" fill="white"/>
<path d="M219.491 107.501C223.604 106.79 247.456 106.79 251.569 107.501C252.025 111.468 252.025 165.263 251.569 169.483C247.753 169.804 223.215 169.804 219.491 169.483C218.943 165.424 218.943 111.559 219.491 107.501ZM238.98 157.559C239.208 152.262 239.208 124.653 238.98 119.448C237.495 119.127 233.771 119.127 232.217 119.448C231.989 124.676 231.989 152.262 232.217 157.559C233.771 157.788 237.495 157.788 238.98 157.559ZM256.298 105.712C258.948 105.254 266.556 105.254 269.184 105.712C269.732 109.61 269.732 167.923 269.184 171.73C266.922 172.28 259.314 172.28 256.298 171.73C255.841 167.9 255.841 109.587 256.298 105.712Z" fill="white"/>
<path d="M273.41 138.824C274.187 136.416 277.614 128.368 280.333 122.222C277.454 122.222 275.215 122.153 274.347 122.062C273.958 120.433 273.958 112.316 274.347 110.596C275.969 110.436 280.493 110.275 285.93 110.275C285.93 107.776 285.999 105.139 286.159 103.419C288.809 103.029 297.034 103.029 299.753 103.419C299.913 105.139 299.981 107.776 299.981 110.275C305.19 110.344 309.531 110.436 310.925 110.596C311.313 112.155 311.313 120.112 310.925 122.062C309.988 122.13 307.978 122.13 305.419 122.222C308.138 128.39 311.565 136.416 312.341 138.824C310.468 140.452 303.797 143.502 301.146 144.052C299.593 141.874 295.48 131.647 292.922 124.722C290.271 131.67 286.159 141.874 284.605 144.052C281.955 143.502 275.284 140.475 273.41 138.824ZM338.501 167.671C336.879 169.62 330.733 173.197 328.174 173.977C326.461 170.927 322.348 164.3 319.31 158.843C316.134 164.231 313.164 168.038 310.08 172.418C308.298 172.578 303.934 172.578 302.152 172.418C299.044 168.061 296.097 164.231 292.899 158.843C289.86 164.3 285.748 170.927 284.034 173.977C281.475 173.197 275.329 169.62 273.707 167.671C275.581 163.933 283.577 150.909 287.621 144.992C290.02 144.603 295.617 144.603 298.108 144.992C300.598 148.661 303.705 153.637 306.104 157.627C308.503 153.66 311.61 148.661 314.101 144.992C316.591 144.603 322.189 144.603 324.587 144.992C328.631 150.909 336.628 163.933 338.478 167.671H338.501ZM321.183 127.221V123.392C318.853 123.392 316.522 123.323 314.421 123.231C313.964 120.044 314.032 114.586 314.421 111.995C316.522 111.834 318.853 111.766 321.252 111.766C321.32 108.808 321.412 106.629 321.48 105.689C324.131 105.23 331.647 105.23 334.297 105.689C334.846 109.587 334.846 137.563 334.297 141.461C332.036 141.782 324.519 141.782 321.48 141.461C321.412 141.002 321.412 140.062 321.32 138.801C318.921 138.801 316.5 138.732 314.398 138.572C313.941 135.384 314.009 129.996 314.398 127.336C316.5 127.175 318.83 127.106 321.16 127.175L321.183 127.221Z" fill="white"/>
<path d="M373.777 156.917C374.097 159.026 374.165 166.433 373.777 169.23C369.276 169.551 345.584 169.551 340.466 169.23C339.918 161.893 339.918 114.655 340.466 107.34C344.19 107.019 365.62 107.019 370.921 107.34C371.241 109.519 371.241 116.627 370.921 119.494C367.357 119.562 356.482 119.562 353.923 119.494C353.694 121.603 353.694 154.096 353.923 156.917C357.738 156.756 370.464 156.756 373.8 156.917H373.777ZM398.703 143.273C397.378 143.433 394.75 143.502 392.032 143.502C392.032 157.306 391.872 170.01 391.643 171.73C389.381 172.28 381.773 172.28 378.757 171.73C378.301 167.9 378.301 109.587 378.757 105.712C381.408 105.254 389.016 105.254 391.643 105.712C391.872 107.34 392.032 118.255 392.032 130.73C394.75 130.73 397.401 130.89 398.703 131.051C399.091 132.77 399.091 141.576 398.703 143.296V143.273Z" fill="white"/>
<g filter="url(#filter0_d_386_833)">
<path d="M358.241 5H299.709C297.5 5 295.709 6.79086 295.709 9V19.23C295.709 21.4391 297.5 23.23 299.709 23.23H335.652C339.212 23.23 340.998 27.5321 338.485 30.0538L294.753 73.9272C293.197 75.488 293.197 78.0132 294.752 79.5743L302.197 87.0464C303.76 88.6152 306.301 88.6155 307.864 87.047L351.408 43.362C353.926 40.8359 358.241 42.6191 358.241 46.1859V84.8121C358.241 87.0212 360.032 88.8121 362.241 88.8121H372.998C375.207 88.8121 376.998 87.0212 376.998 84.8121V23.23V9C376.998 6.79086 375.207 5 372.998 5H358.241Z" fill="#2560AB"/>
</g>
<circle cx="395" cy="11" r="9" fill="#FFA800"/>
</g>
<defs>
<filter id="filter0_d_386_833" x="281.586" y="-3" width="107.413" height="107.812" filterUnits="userSpaceOnUse" color-interpolation-filters="sRGB">
<feFlood flood-opacity="0" result="BackgroundImageFix"/>
<feColorMatrix in="SourceAlpha" type="matrix" values="0 0 0 0 0 0 0 0 0 0 0 0 0 0 0 0 0 0 127 0" result="hardAlpha"/>
<feOffset dy="4"/>
<feGaussianBlur stdDeviation="6"/>
<feComposite in2="hardAlpha" operator="out"/>
<feColorMatrix type="matrix" values="0 0 0 0 1 0 0 0 0 1 0 0 0 0 1 0 0 0 0.25 0"/>
<feBlend mode="normal" in2="BackgroundImageFix" result="effect1_dropShadow_386_833"/>
<feBlend mode="normal" in="SourceGraphic" in2="effect1_dropShadow_386_833" result="shape"/>
</filter>
<clipPath id="clip0_386_833">
<rect width="403" height="174" fill="white"/>
</clipPath>
</defs>
</svg>
