<svg width="105" height="61" viewBox="0 0 105 61" fill="none" xmlns="http://www.w3.org/2000/svg">
<path d="M0.509766 8.93235C0.509766 3.97655 4.01931 1.03914 9.69053 1.03914C15.3617 1.03914 18.8713 3.97655 18.8713 8.93235C18.8713 13.8882 15.3617 16.8256 9.69053 16.8256C4.01931 16.8256 0.509766 13.8967 0.509766 8.93235ZM27.8571 18.4574C28.0181 19.8317 28.0181 27.8194 27.8571 29.1592C26.5686 29.2537 23.6694 29.2537 22.313 29.1592C22.2791 28.1801 22.313 24.6243 22.313 23.3789C20.8295 23.4132 3.019 23.4132 1.56941 23.3789C1.47616 22.5973 1.47616 19.3936 1.56941 18.4489C3.21398 18.2857 26.2379 18.2857 27.8486 18.4489L27.8571 18.4574ZM5.75713 8.93235C5.75713 10.9851 7.29997 12.1618 9.68205 12.1618C12.0641 12.1618 13.6155 10.9851 13.6155 8.93235C13.6155 6.8796 12.0726 5.70292 9.68205 5.70292C7.29149 5.70292 5.75713 6.8796 5.75713 8.93235ZM19.6681 10.2379C20.2192 10.2035 21.3127 10.1692 22.4402 10.1692V7.46365C21.3127 7.46365 20.2192 7.42929 19.6681 7.39494C19.5071 6.4158 19.5071 3.67594 19.6681 2.66245C20.2446 2.62809 21.3466 2.59374 22.4741 2.59374C22.508 1.90662 22.508 1.41706 22.5419 1.15939C23.6355 0.961844 26.7635 0.961844 27.8571 1.15939C28.086 2.79128 28.086 15.6832 27.8571 17.3151C26.9246 17.444 23.7965 17.444 22.5419 17.3151C22.508 16.9887 22.508 16.1728 22.4741 15.0992C21.3466 15.0992 20.2531 15.0648 19.6681 15.0047C19.5071 14.0256 19.5071 11.2857 19.6681 10.2379Z" fill="black"/>
<path d="M30.5609 16.8343C30.3321 15.1337 30.3321 9.23316 30.5609 7.04299C32.0444 6.97428 37.419 6.97428 39.2924 7.04299V5.80619C37.4529 5.84054 31.9512 5.84054 30.4338 5.80619C30.2727 4.62951 30.2727 2.70559 30.4338 1.40008C31.8495 1.27125 43.1919 1.27125 44.5737 1.40008C44.7348 3.03197 44.7348 9.06997 44.5737 11.0282C43.1919 11.097 37.1647 11.097 36.0711 11.0282V12.3338C37.1986 12.2994 44.9297 12.3338 46.3454 12.3338C46.5065 13.2785 46.5065 15.8294 46.3454 16.8343C44.1583 17.0319 32.782 17.0319 30.5609 16.8343ZM54.0427 23.7828C54.0427 27.6048 50.8553 29.6919 42.3188 29.6919C33.7823 29.6919 30.5949 27.6048 30.5949 23.7828C30.5949 19.9607 33.7823 17.8736 42.3188 17.8736C50.8553 17.8736 54.0427 19.9607 54.0427 23.7828ZM48.4393 23.7828C48.4393 22.9325 47.4729 22.4429 42.3188 22.4429C37.1647 22.4429 36.1983 22.9325 36.1983 23.7828C36.1983 24.6331 37.1647 25.1226 42.3188 25.1226C47.4729 25.1226 48.4393 24.6331 48.4393 23.7828ZM56.1026 10.3669C56.2637 11.054 56.2637 14.3178 56.1026 14.9706C55.5516 15.0393 54.4581 15.065 53.2967 15.0994C53.2967 16.2074 53.2628 17.0233 53.2289 17.384C52.2964 17.5129 49.1683 17.5129 47.9137 17.384C47.7526 15.6577 47.7526 2.80007 47.9137 1.16818C49.0072 0.970633 52.1353 0.970633 53.2289 1.16818C53.2628 1.52891 53.2967 2.37921 53.3306 3.54731C54.4581 3.58166 55.5516 3.61602 56.1026 3.67614C56.2637 4.36325 56.2637 7.62704 56.1026 8.27979C55.5516 8.34851 54.492 8.37427 53.3645 8.40863V10.2381C54.492 10.2724 55.5516 10.3068 56.1026 10.3669Z" fill="black"/>
<path d="M23.4062 49.7126C21.4056 49.7813 2.08617 49.7813 0.4416 49.7126C0.280534 48.2439 0.280534 46.7065 0.4416 45.1776C1.11977 45.1433 4.82429 45.1089 9.10526 45.1089V43.8979C5.33292 43.8979 2.08617 43.8635 1.408 43.8034C1.24693 42.3691 1.24693 40.866 1.408 39.466C1.76404 39.466 2.8915 39.466 4.43434 39.4317L4.23937 37.0182C2.78977 36.9838 1.76404 36.9838 1.408 36.9838C1.24693 35.5151 1.24693 33.9176 1.408 32.4832C3.05257 32.32 19.795 32.32 22.4398 32.4832C22.567 33.9863 22.6009 35.6182 22.4398 36.9838H19.6085C19.5406 37.8341 19.4813 38.6844 19.4135 39.466H22.4398C22.567 40.9004 22.6009 42.4378 22.4398 43.8034C21.4056 43.8721 18.286 43.8721 14.7426 43.8979V45.1089C18.9303 45.1089 22.6009 45.1433 23.4062 45.1776C23.5334 46.7408 23.5673 48.3126 23.4062 49.7126ZM22.6941 50.8205C22.923 52.4524 22.923 58.8512 22.6941 60.38C21.0496 60.5776 2.78977 60.5776 1.1452 60.38C0.916321 58.8426 0.916321 52.4524 1.1452 50.8205C2.66262 50.6574 21.1767 50.6574 22.6941 50.8205ZM17.1501 54.9948C16.0226 54.9003 7.84216 54.9003 6.68079 54.9948V56.2058C7.80825 56.3003 15.9887 56.3003 17.1501 56.2058V54.9948ZM9.74104 39.4317H14.0898L14.2848 37.0182H9.54607L9.74104 39.4317Z" fill="black"/>
<path d="M30.239 32.8356C31.943 32.5436 41.8358 32.5436 43.5397 32.8356C43.7347 34.5019 43.7347 57.0134 43.5397 58.7827C41.963 58.9116 31.7819 58.9116 30.239 58.7827C30.0102 57.0821 30.0102 34.5362 30.239 32.8356ZM38.3263 53.784C38.428 51.568 38.428 40.016 38.3263 37.8258C37.7159 37.6969 36.1731 37.6969 35.5288 37.8258C35.4355 40.016 35.4355 51.568 35.5288 53.784C36.1731 53.8784 37.7159 53.8784 38.3263 53.784ZM45.5064 32.0798C46.6 31.8823 49.7619 31.8823 50.8555 32.0798C51.0844 33.7117 51.0844 58.1214 50.8555 59.7189C49.923 59.9508 46.761 59.9508 45.5064 59.7189C45.3114 58.1214 45.3114 33.7117 45.5064 32.0798Z" fill="black"/>
<path d="M52.5934 45.9593C52.9156 44.9458 54.3313 41.5875 55.4587 39.0108C54.2634 39.0108 53.3309 38.9765 52.9834 38.9421C52.8223 38.255 52.8223 34.8624 52.9834 34.1409C53.6616 34.0722 55.5265 34.0121 57.7815 34.0121C57.7815 32.9642 57.8154 31.8563 57.8747 31.1434C58.9683 30.9802 62.3846 30.9802 63.512 31.1434C63.5798 31.8649 63.6053 32.9728 63.6053 34.0121C65.7585 34.0464 67.5641 34.0808 68.149 34.1409C68.3101 34.7937 68.3101 38.1262 68.149 38.9421C67.7591 38.9765 66.9283 38.9765 65.8602 39.0108C66.9877 41.5875 68.4033 44.9544 68.7255 45.9593C67.9541 46.6464 65.182 47.9175 64.0885 48.1494C63.4442 47.239 61.7403 42.9617 60.6722 40.0587C59.5786 42.9617 57.8662 47.239 57.222 48.1494C56.1284 47.9175 53.3564 46.6464 52.585 45.9593H52.5934ZM79.5847 58.0353C78.9065 58.8512 76.3634 60.3543 75.3037 60.6806C74.5917 59.4095 72.8878 56.6353 71.6331 54.3506C70.3107 56.6009 69.09 58.1984 67.8015 60.0279C67.0639 60.0966 65.2583 60.0966 64.5123 60.0279C63.2238 58.1984 62.0031 56.6009 60.6806 54.3506C59.426 56.6353 57.7136 59.4095 57.01 60.6806C55.9504 60.3543 53.3988 58.8512 52.7291 58.0353C53.5005 56.4721 56.8151 51.0181 58.4935 48.5359C59.4938 48.3727 61.8081 48.3727 62.8423 48.5359C63.8765 50.0733 65.1651 52.1604 66.1569 53.8267C67.1572 52.1604 68.4457 50.0733 69.4715 48.5359C70.5057 48.3727 72.8199 48.3727 73.8202 48.5359C75.4987 51.0181 78.8133 56.4635 79.5847 58.0353ZM72.4046 41.0979V39.5004C71.4382 39.5004 70.4718 39.466 69.5986 39.4317C69.4036 38.0918 69.4376 35.8072 69.5986 34.7336C70.4718 34.6648 71.4382 34.6391 72.43 34.6391C72.4639 33.4023 72.4978 32.4833 72.5232 32.0968C73.6168 31.8992 76.7449 31.8992 77.8384 32.0968C78.0673 33.7286 78.0673 45.4439 77.8384 47.0758C76.9059 47.2046 73.7779 47.2046 72.5232 47.0758C72.4893 46.8783 72.4893 46.4918 72.4554 45.9678C71.4551 45.9678 70.4548 45.9335 69.5901 45.8734C69.3952 44.5335 69.4291 42.2832 69.5901 41.1752C70.4633 41.1065 71.4297 41.0808 72.3961 41.1065L72.4046 41.0979Z" fill="black"/>
<path d="M94.216 53.5263C94.3432 54.411 94.3771 57.5116 94.216 58.6796C92.351 58.8085 82.526 58.8085 80.3982 58.6796C80.1693 55.6134 80.1693 35.8332 80.3982 32.7669C81.9411 32.6381 90.8336 32.6381 93.0207 32.7669C93.1479 33.6773 93.1479 36.6491 93.0207 37.8601C91.5372 37.8945 87.0274 37.8945 85.9677 37.8601C85.866 38.7448 85.866 52.3496 85.9677 53.5263C87.5445 53.4576 92.8257 53.4576 94.216 53.5263ZM104.558 47.8147C104.007 47.8834 102.914 47.9092 101.786 47.9092C101.786 53.6895 101.718 59.006 101.625 59.7189C100.693 59.9508 97.5306 59.9508 96.2759 59.7189C96.081 58.1214 96.081 33.7117 96.2759 32.0798C97.3695 31.8823 100.523 31.8823 101.625 32.0798C101.718 32.7669 101.786 37.3362 101.786 42.5583C102.914 42.5583 104.007 42.627 104.558 42.6871C104.719 43.4086 104.719 47.0932 104.558 47.8147Z" fill="black"/>
<path d="M87.7036 0H69.4517C68.3471 0 67.4517 0.895431 67.4517 2V3.9607C67.4517 5.06527 68.3471 5.9607 69.4517 5.9607H78.7217C80.4974 5.9607 81.3925 8.10245 80.1448 9.36597L67.6183 22.0514C66.8492 22.8302 66.8491 24.0826 67.6179 24.8616L69.0464 26.3089C69.8294 27.1022 71.1098 27.1024 71.893 26.3093L84.2805 13.7646C85.5367 12.4924 87.7036 13.382 87.7036 15.1699V25.3986C87.7036 26.5032 88.599 27.3986 89.7036 27.3986H91.7733C92.8778 27.3986 93.7733 26.5032 93.7733 25.3986V5.9607V2C93.7733 0.895428 92.8778 0 91.7733 0H87.7036Z" fill="#2560AB"/>
<ellipse cx="98.8613" cy="2.95161" rx="2.90769" ry="2.95161" fill="#FFA800"/>
</svg>
