<svg width="26" height="26" viewBox="0 0 26 26" fill="none" xmlns="http://www.w3.org/2000/svg">
<path d="M10.2446 2.39823C11.2859 -0.0196638 14.7141 -0.0196609 15.7554 2.39823L17.1623 5.66525C17.5966 6.67378 18.5472 7.36444 19.6406 7.46585L23.1825 7.79435C25.8038 8.03747 26.8632 11.2979 24.8854 13.0354L22.213 15.383C21.3881 16.1077 21.025 17.2252 21.2664 18.2964L22.0485 21.7665C22.6273 24.3346 19.8538 26.3497 17.5902 25.0056L14.5317 23.1895C13.5875 22.6289 12.4125 22.6289 11.4683 23.1895L8.40978 25.0056C6.14619 26.3497 3.3727 24.3346 3.95151 21.7665L4.73359 18.2964C4.97502 17.2252 4.61192 16.1077 3.78696 15.383L1.1146 13.0354C-0.863183 11.2979 0.196199 8.03747 2.81751 7.79435L6.3594 7.46585C7.45278 7.36444 8.40339 6.67378 8.83771 5.66525L10.2446 2.39823Z" fill="#FFA800"/>
</svg>
